<mxfile host="app.diagrams.net" modified="2021-04-20T06:26:40.085Z" agent="5.0 (Windows)" etag="2iigGCthwnAtSPx4yNXC" version="14.5.10" type="github">
  <diagram name="Page-1" id="e7e014a7-5840-1c2e-5031-d8a46d1fe8dd">
    <mxGraphModel dx="1422" dy="763" grid="1" gridSize="10" guides="1" tooltips="1" connect="1" arrows="1" fold="1" page="1" pageScale="1" pageWidth="1169" pageHeight="826" background="#ffffff" math="0" shadow="0">
      <root>
        <mxCell id="0" />
        <mxCell id="1" parent="0" />
        <mxCell id="PX3ZhRExymHSyqCVtORz-41" value="&lt;div&gt;Воспитатель&lt;/div&gt;" style="shape=umlActor;verticalLabelPosition=bottom;verticalAlign=top;html=1;" vertex="1" parent="1">
          <mxGeometry x="120" y="250" width="30" height="60" as="geometry" />
        </mxCell>
        <mxCell id="PX3ZhRExymHSyqCVtORz-42" value="&lt;div&gt;Педагогический работник&lt;/div&gt;&lt;div&gt;&lt;br&gt;&lt;/div&gt;" style="shape=umlActor;verticalLabelPosition=bottom;verticalAlign=top;html=1;" vertex="1" parent="1">
          <mxGeometry x="370" y="480" width="30" height="60" as="geometry" />
        </mxCell>
        <mxCell id="PX3ZhRExymHSyqCVtORz-43" value="&lt;div&gt;Преподаватель&lt;/div&gt;&lt;div&gt;&lt;br&gt;&lt;/div&gt;" style="shape=umlActor;verticalLabelPosition=bottom;verticalAlign=top;html=1;" vertex="1" parent="1">
          <mxGeometry x="110" y="690" width="30" height="60" as="geometry" />
        </mxCell>
        <mxCell id="PX3ZhRExymHSyqCVtORz-50" value="Методист УО" style="shape=umlActor;verticalLabelPosition=bottom;verticalAlign=top;html=1;" vertex="1" parent="1">
          <mxGeometry x="120" y="530" width="30" height="60" as="geometry" />
        </mxCell>
        <mxCell id="PX3ZhRExymHSyqCVtORz-51" value="Методист ВО" style="shape=umlActor;verticalLabelPosition=bottom;verticalAlign=top;html=1;" vertex="1" parent="1">
          <mxGeometry x="110" y="390" width="30" height="60" as="geometry" />
        </mxCell>
        <mxCell id="PX3ZhRExymHSyqCVtORz-54" value="" style="endArrow=none;html=1;" edge="1" parent="1">
          <mxGeometry width="50" height="50" relative="1" as="geometry">
            <mxPoint x="260" y="720" as="sourcePoint" />
            <mxPoint x="260" y="280" as="targetPoint" />
          </mxGeometry>
        </mxCell>
        <mxCell id="PX3ZhRExymHSyqCVtORz-55" value="" style="endArrow=block;endSize=16;endFill=0;html=1;entryX=0.5;entryY=0.5;entryDx=0;entryDy=0;entryPerimeter=0;" edge="1" parent="1" target="PX3ZhRExymHSyqCVtORz-42">
          <mxGeometry x="-0.04" y="60" width="160" relative="1" as="geometry">
            <mxPoint x="260" y="510" as="sourcePoint" />
            <mxPoint x="780" y="590" as="targetPoint" />
            <mxPoint as="offset" />
          </mxGeometry>
        </mxCell>
        <mxCell id="PX3ZhRExymHSyqCVtORz-56" value="" style="endArrow=none;html=1;" edge="1" parent="1">
          <mxGeometry width="50" height="50" relative="1" as="geometry">
            <mxPoint x="140" y="720" as="sourcePoint" />
            <mxPoint x="260" y="720" as="targetPoint" />
          </mxGeometry>
        </mxCell>
        <mxCell id="PX3ZhRExymHSyqCVtORz-57" value="" style="endArrow=none;html=1;exitX=0.5;exitY=0.5;exitDx=0;exitDy=0;exitPerimeter=0;" edge="1" parent="1" source="PX3ZhRExymHSyqCVtORz-50">
          <mxGeometry width="50" height="50" relative="1" as="geometry">
            <mxPoint x="670" y="610" as="sourcePoint" />
            <mxPoint x="260" y="560" as="targetPoint" />
          </mxGeometry>
        </mxCell>
        <mxCell id="PX3ZhRExymHSyqCVtORz-58" value="" style="endArrow=none;html=1;" edge="1" parent="1">
          <mxGeometry width="50" height="50" relative="1" as="geometry">
            <mxPoint x="140" y="424" as="sourcePoint" />
            <mxPoint x="260" y="424" as="targetPoint" />
          </mxGeometry>
        </mxCell>
        <mxCell id="PX3ZhRExymHSyqCVtORz-59" value="" style="endArrow=none;html=1;" edge="1" parent="1" source="PX3ZhRExymHSyqCVtORz-41">
          <mxGeometry width="50" height="50" relative="1" as="geometry">
            <mxPoint x="670" y="610" as="sourcePoint" />
            <mxPoint x="260" y="280" as="targetPoint" />
          </mxGeometry>
        </mxCell>
        <mxCell id="PX3ZhRExymHSyqCVtORz-60" value="Управлять личным портфолио" style="ellipse;whiteSpace=wrap;html=1;" vertex="1" parent="1">
          <mxGeometry x="500" y="343" width="140" height="70" as="geometry" />
        </mxCell>
        <mxCell id="PX3ZhRExymHSyqCVtORz-61" value="" style="endArrow=open;endFill=1;endSize=12;html=1;exitX=0.5;exitY=0.5;exitDx=0;exitDy=0;exitPerimeter=0;entryX=0;entryY=0.5;entryDx=0;entryDy=0;" edge="1" parent="1" source="PX3ZhRExymHSyqCVtORz-42" target="PX3ZhRExymHSyqCVtORz-60">
          <mxGeometry width="160" relative="1" as="geometry">
            <mxPoint x="620" y="590" as="sourcePoint" />
            <mxPoint x="780" y="590" as="targetPoint" />
          </mxGeometry>
        </mxCell>
        <mxCell id="PX3ZhRExymHSyqCVtORz-62" value="Просмотреть доступные мероприятия" style="ellipse;whiteSpace=wrap;html=1;" vertex="1" parent="1">
          <mxGeometry x="585" y="540" width="140" height="70" as="geometry" />
        </mxCell>
        <mxCell id="PX3ZhRExymHSyqCVtORz-63" value="&lt;div&gt;Подтверждение&lt;/div&gt;&lt;div&gt;мероприятия&lt;br&gt;&lt;/div&gt;" style="ellipse;whiteSpace=wrap;html=1;" vertex="1" parent="1">
          <mxGeometry x="470" y="680" width="140" height="70" as="geometry" />
        </mxCell>
        <mxCell id="PX3ZhRExymHSyqCVtORz-64" value="" style="endArrow=open;endFill=1;endSize=12;html=1;entryX=0;entryY=0.5;entryDx=0;entryDy=0;" edge="1" parent="1" source="PX3ZhRExymHSyqCVtORz-42" target="PX3ZhRExymHSyqCVtORz-63">
          <mxGeometry width="160" relative="1" as="geometry">
            <mxPoint x="620" y="590" as="sourcePoint" />
            <mxPoint x="780" y="590" as="targetPoint" />
          </mxGeometry>
        </mxCell>
        <mxCell id="PX3ZhRExymHSyqCVtORz-65" value="" style="endArrow=open;endFill=1;endSize=12;html=1;entryX=0;entryY=0.5;entryDx=0;entryDy=0;" edge="1" parent="1" source="PX3ZhRExymHSyqCVtORz-42" target="PX3ZhRExymHSyqCVtORz-62">
          <mxGeometry width="160" relative="1" as="geometry">
            <mxPoint x="620" y="590" as="sourcePoint" />
            <mxPoint x="780" y="590" as="targetPoint" />
          </mxGeometry>
        </mxCell>
        <mxCell id="PX3ZhRExymHSyqCVtORz-66" value="Добавить мероприятие" style="ellipse;whiteSpace=wrap;html=1;" vertex="1" parent="1">
          <mxGeometry x="870" y="500" width="140" height="70" as="geometry" />
        </mxCell>
        <mxCell id="PX3ZhRExymHSyqCVtORz-67" value="Изменить мероприятие" style="ellipse;whiteSpace=wrap;html=1;" vertex="1" parent="1">
          <mxGeometry x="900" y="280" width="140" height="70" as="geometry" />
        </mxCell>
        <mxCell id="PX3ZhRExymHSyqCVtORz-68" value="Удалить мероприятие" style="ellipse;whiteSpace=wrap;html=1;" vertex="1" parent="1">
          <mxGeometry x="920" y="390" width="140" height="70" as="geometry" />
        </mxCell>
        <mxCell id="PX3ZhRExymHSyqCVtORz-73" value="&amp;lt;&amp;lt;Include&amp;gt;&amp;gt;" style="endArrow=open;endSize=12;dashed=1;html=1;" edge="1" parent="1" source="PX3ZhRExymHSyqCVtORz-66" target="PX3ZhRExymHSyqCVtORz-74">
          <mxGeometry width="160" relative="1" as="geometry">
            <mxPoint x="620" y="590" as="sourcePoint" />
            <mxPoint x="780" y="590" as="targetPoint" />
          </mxGeometry>
        </mxCell>
        <mxCell id="PX3ZhRExymHSyqCVtORz-74" value="Выбор доступных мероприятий" style="ellipse;whiteSpace=wrap;html=1;" vertex="1" parent="1">
          <mxGeometry x="870" y="650" width="140" height="70" as="geometry" />
        </mxCell>
        <mxCell id="PX3ZhRExymHSyqCVtORz-75" value="&amp;lt;&amp;lt;include&amp;gt;&amp;gt;" style="endArrow=open;endSize=12;dashed=1;html=1;entryX=0.986;entryY=0.657;entryDx=0;entryDy=0;entryPerimeter=0;" edge="1" parent="1" source="PX3ZhRExymHSyqCVtORz-74" target="PX3ZhRExymHSyqCVtORz-62">
          <mxGeometry width="160" relative="1" as="geometry">
            <mxPoint x="620" y="590" as="sourcePoint" />
            <mxPoint x="780" y="590" as="targetPoint" />
          </mxGeometry>
        </mxCell>
        <mxCell id="PX3ZhRExymHSyqCVtORz-77" value="Подтверждение по телефону" style="ellipse;whiteSpace=wrap;html=1;" vertex="1" parent="1">
          <mxGeometry x="700" y="730" width="140" height="70" as="geometry" />
        </mxCell>
        <mxCell id="PX3ZhRExymHSyqCVtORz-78" value="&amp;lt;&amp;lt;Extend&amp;gt;&amp;gt;" style="endArrow=open;endSize=12;dashed=1;html=1;entryX=1;entryY=0.5;entryDx=0;entryDy=0;" edge="1" parent="1" target="PX3ZhRExymHSyqCVtORz-63">
          <mxGeometry x="-0.0267" y="2" width="160" relative="1" as="geometry">
            <mxPoint x="690" y="760" as="sourcePoint" />
            <mxPoint x="780" y="590" as="targetPoint" />
            <mxPoint as="offset" />
          </mxGeometry>
        </mxCell>
        <mxCell id="PX3ZhRExymHSyqCVtORz-81" value="Просмотреть портфолио" style="ellipse;whiteSpace=wrap;html=1;" vertex="1" parent="1">
          <mxGeometry x="760" y="210" width="140" height="70" as="geometry" />
        </mxCell>
        <mxCell id="PX3ZhRExymHSyqCVtORz-83" value="" style="endArrow=none;html=1;" edge="1" parent="1">
          <mxGeometry width="50" height="50" relative="1" as="geometry">
            <mxPoint x="700" y="470" as="sourcePoint" />
            <mxPoint x="700" y="260" as="targetPoint" />
          </mxGeometry>
        </mxCell>
        <mxCell id="PX3ZhRExymHSyqCVtORz-97" value="" style="endArrow=block;endSize=16;endFill=0;html=1;" edge="1" parent="1" target="PX3ZhRExymHSyqCVtORz-60">
          <mxGeometry x="0.4586" y="67" width="160" relative="1" as="geometry">
            <mxPoint x="700" y="376" as="sourcePoint" />
            <mxPoint x="780" y="590" as="targetPoint" />
            <mxPoint as="offset" />
          </mxGeometry>
        </mxCell>
        <mxCell id="PX3ZhRExymHSyqCVtORz-98" value="" style="endArrow=none;html=1;entryX=0;entryY=0.5;entryDx=0;entryDy=0;" edge="1" parent="1" target="PX3ZhRExymHSyqCVtORz-66">
          <mxGeometry width="50" height="50" relative="1" as="geometry">
            <mxPoint x="700" y="470" as="sourcePoint" />
            <mxPoint x="720" y="560" as="targetPoint" />
          </mxGeometry>
        </mxCell>
        <mxCell id="PX3ZhRExymHSyqCVtORz-99" value="" style="endArrow=none;html=1;entryX=0;entryY=0.5;entryDx=0;entryDy=0;" edge="1" parent="1" target="PX3ZhRExymHSyqCVtORz-68">
          <mxGeometry width="50" height="50" relative="1" as="geometry">
            <mxPoint x="700" y="425" as="sourcePoint" />
            <mxPoint x="720" y="560" as="targetPoint" />
          </mxGeometry>
        </mxCell>
        <mxCell id="PX3ZhRExymHSyqCVtORz-100" value="" style="endArrow=none;html=1;entryX=-0.014;entryY=0.6;entryDx=0;entryDy=0;entryPerimeter=0;" edge="1" parent="1" target="PX3ZhRExymHSyqCVtORz-67">
          <mxGeometry width="50" height="50" relative="1" as="geometry">
            <mxPoint x="700" y="322" as="sourcePoint" />
            <mxPoint x="720" y="560" as="targetPoint" />
          </mxGeometry>
        </mxCell>
        <mxCell id="PX3ZhRExymHSyqCVtORz-101" value="" style="endArrow=none;html=1;entryX=0;entryY=0.5;entryDx=0;entryDy=0;" edge="1" parent="1" target="PX3ZhRExymHSyqCVtORz-81">
          <mxGeometry width="50" height="50" relative="1" as="geometry">
            <mxPoint x="700" y="260" as="sourcePoint" />
            <mxPoint x="720" y="560" as="targetPoint" />
          </mxGeometry>
        </mxCell>
      </root>
    </mxGraphModel>
  </diagram>
</mxfile>
